<?xml version="1.0" encoding="utf-8"?>
<!-- Generator: Adobe Illustrator 26.1.0, SVG Export Plug-In . SVG Version: 6.00 Build 0)  -->
<svg version="1.1" id="Layer_1" xmlns="http://www.w3.org/2000/svg" xmlns:xlink="http://www.w3.org/1999/xlink" x="0px" y="0px"
	 viewBox="0 0 800 800" style="enable-background:new 0 0 800 800;" xml:space="preserve">
<style type="text/css">
	.st0{fill:#06B6D4;}
</style>
<g>
	<rect x="557.3" y="585.4" class="st0" width="8.5" height="4.2"/>
	<polygon class="st0" points="167,224.8 167,237.5 162.8,237.5 162.8,241.8 167,241.8 167,246 171.2,246 171.2,224.8 	"/>
	<polygon class="st0" points="247.6,432.7 247.6,436.9 251.9,436.9 251.9,432.7 256.1,432.7 256.1,428.5 234.9,428.5 234.9,432.7 	
		"/>
	<rect x="171.2" y="271.5" class="st0" width="4.2" height="4.2"/>
	<polygon class="st0" points="430,721.2 425.8,721.2 425.8,725.4 421.5,725.4 421.5,716.9 413.1,716.9 413.1,725.4 400.3,725.4 
		400.3,729.7 387.6,729.7 387.6,733.9 400.3,733.9 400.3,746.6 413.1,746.6 413.1,742.4 421.5,742.4 421.5,738.1 430,738.1 
		430,733.9 434.3,733.9 434.3,725.4 430,725.4 	"/>
	<rect x="536.1" y="296.9" class="st0" width="8.5" height="4.2"/>
	<polygon class="st0" points="404.6,606.6 404.6,602.4 413.1,602.4 413.1,606.6 417.3,606.6 417.3,602.4 425.8,602.4 425.8,593.9 
		400.3,593.9 400.3,598.1 396.1,598.1 396.1,602.4 400.3,602.4 400.3,606.6 	"/>
	<rect x="578.5" y="309.7" class="st0" width="4.2" height="4.2"/>
	<polygon class="st0" points="171.2,377.5 171.2,386 175.5,386 175.5,390.3 179.7,390.3 179.7,377.5 	"/>
	<polygon class="st0" points="222.2,148.5 222.2,152.7 217.9,152.7 217.9,156.9 230.6,156.9 230.6,152.7 234.9,152.7 234.9,140 
		239.1,140 239.1,135.7 230.6,135.7 230.6,140 226.4,140 226.4,144.2 217.9,144.2 217.9,148.5 	"/>
	<polygon class="st0" points="209.4,152.7 213.7,152.7 213.7,144.2 217.9,144.2 217.9,140 222.2,140 222.2,135.7 226.4,135.7 
		226.4,127.2 234.9,127.2 234.9,118.8 230.6,118.8 230.6,123 222.2,123 222.2,127.2 217.9,127.2 217.9,131.5 213.7,131.5 
		213.7,135.7 209.4,135.7 209.4,148.5 205.2,148.5 205.2,165.4 200.9,165.4 200.9,169.7 209.4,169.7 	"/>
	<rect x="171.2" y="296.9" class="st0" width="4.2" height="4.2"/>
	<polygon class="st0" points="234.9,152.7 234.9,156.9 230.6,156.9 230.6,161.2 222.2,161.2 222.2,165.4 217.9,165.4 217.9,169.7 
		226.4,169.7 226.4,165.4 234.9,165.4 234.9,161.2 239.1,161.2 239.1,156.9 243.4,156.9 243.4,148.5 247.6,148.5 247.6,144.2 
		243.4,144.2 243.4,140 239.1,140 239.1,152.7 	"/>
	<polygon class="st0" points="222.2,424.2 226.4,424.2 226.4,428.5 234.9,428.5 234.9,424.2 230.6,424.2 230.6,420 222.2,420 	"/>
	<polygon class="st0" points="493.7,708.5 489.4,708.5 489.4,716.9 493.7,716.9 493.7,712.7 497.9,712.7 497.9,708.5 502.2,708.5 
		502.2,704.2 493.7,704.2 	"/>
	<polygon class="st0" points="315.5,80.6 324,80.6 324,76.3 328.2,76.3 328.2,63.6 324,63.6 324,59.4 319.7,59.4 319.7,63.6 
		311.2,63.6 311.2,76.3 315.5,76.3 	"/>
	<polygon class="st0" points="247.6,131.5 251.9,131.5 251.9,127.2 243.4,127.2 243.4,140 247.6,140 	"/>
	<polygon class="st0" points="357.9,67.8 366.4,67.8 366.4,72.1 374.9,72.1 374.9,67.8 379.1,67.8 379.1,72.1 383.4,72.1 
		383.4,67.8 396.1,67.8 396.1,63.6 400.3,63.6 400.3,59.4 396.1,59.4 396.1,55.1 391.9,55.1 391.9,50.9 383.4,50.9 383.4,55.1 
		379.1,55.1 379.1,59.4 387.6,59.4 387.6,63.6 366.4,63.6 366.4,59.4 374.9,59.4 374.9,55.1 379.1,55.1 379.1,50.9 370.6,50.9 
		370.6,55.1 366.4,55.1 366.4,50.9 362.2,50.9 362.2,55.1 357.9,55.1 357.9,59.4 353.7,59.4 353.7,63.6 357.9,63.6 	"/>
	<rect x="226.4" y="233.3" class="st0" width="4.2" height="4.2"/>
	<polygon class="st0" points="239.1,114.5 247.6,114.5 247.6,110.3 251.9,110.3 251.9,106 256.1,106 256.1,101.8 260.3,101.8 
		260.3,93.3 256.1,93.3 256.1,97.5 251.9,97.5 251.9,101.8 243.4,101.8 243.4,106 239.1,106 239.1,110.3 234.9,110.3 234.9,118.8 
		239.1,118.8 	"/>
	<polygon class="st0" points="217.9,207.8 217.9,212.1 226.4,212.1 226.4,190.9 222.2,190.9 222.2,207.8 	"/>
	<rect x="336.7" y="296.9" class="st0" width="17" height="4.2"/>
	<path class="st0" d="M430,76.3h8.5v4.2h4.2v-4.2h8.5v4.2h4.2v-4.2h4.2V63.6H447v-4.2h-4.2v4.2h-4.2v-4.2h-4.2v4.2h-8.5v8.5h4.2
		V76.3z M438.5,67.8h4.2v4.2h-4.2V67.8z"/>
	<rect x="294.3" y="80.6" class="st0" width="4.2" height="17"/>
	<polygon class="st0" points="514.9,123 523.4,123 523.4,127.2 531.9,127.2 531.9,123 536.1,123 536.1,118.8 531.9,118.8 
		531.9,110.3 523.4,110.3 523.4,106 514.9,106 514.9,110.3 510.6,110.3 510.6,118.8 514.9,118.8 	"/>
	<polygon class="st0" points="502.2,292.7 497.9,292.7 497.9,296.9 502.2,296.9 502.2,301.2 531.9,301.2 531.9,296.9 523.4,296.9 
		523.4,292.7 519.1,292.7 519.1,296.9 514.9,296.9 514.9,292.7 506.4,292.7 506.4,288.5 502.2,288.5 	"/>
	<polygon class="st0" points="476.7,275.7 506.4,275.7 506.4,280 510.6,280 510.6,284.2 506.4,284.2 506.4,288.5 514.9,288.5 
		514.9,275.7 510.6,275.7 510.6,271.5 472.5,271.5 472.5,280 476.7,280 	"/>
	<polygon class="st0" points="519.1,93.3 523.4,93.3 523.4,97.5 527.6,97.5 527.6,93.3 531.9,93.3 531.9,84.8 527.6,84.8 
		527.6,80.6 514.9,80.6 514.9,89.1 519.1,89.1 	"/>
	<polygon class="st0" points="408.8,712.7 408.8,708.5 400.3,708.5 400.3,704.2 396.1,704.2 396.1,712.7 404.6,712.7 404.6,716.9 
		413.1,716.9 413.1,712.7 	"/>
	<polygon class="st0" points="264.6,97.5 268.8,97.5 268.8,106 290,106 290,101.8 294.3,101.8 294.3,97.5 285.8,97.5 285.8,101.8 
		281.5,101.8 281.5,97.5 277.3,97.5 277.3,80.6 281.5,80.6 281.5,76.3 285.8,76.3 285.8,80.6 294.3,80.6 294.3,72.1 277.3,72.1 
		277.3,76.3 273.1,76.3 273.1,80.6 268.8,80.6 268.8,84.8 264.6,84.8 264.6,89.1 260.3,89.1 260.3,93.3 264.6,93.3 	"/>
	<polygon class="st0" points="391.9,716.9 391.9,721.2 396.1,721.2 396.1,725.4 400.3,725.4 400.3,716.9 	"/>
	<rect x="217.9" y="263" class="st0" width="4.2" height="4.2"/>
	<polygon class="st0" points="561.5,568.5 557.3,568.5 557.3,581.2 565.8,581.2 565.8,576.9 561.5,576.9 561.5,572.7 565.8,572.7 
		565.8,555.7 561.5,555.7 	"/>
	<polygon class="st0" points="553.1,492.1 553.1,496.3 561.5,496.3 561.5,492.1 557.3,492.1 557.3,487.8 548.8,487.8 548.8,492.1 	
		"/>
	<polygon class="st0" points="565.8,555.7 570,555.7 570,551.5 574.3,551.5 574.3,547.2 565.8,547.2 	"/>
	<polygon class="st0" points="527.6,500.6 531.9,500.6 531.9,487.8 527.6,487.8 527.6,496.3 523.4,496.3 523.4,504.8 527.6,504.8 	
		"/>
	<rect x="574.3" y="543" class="st0" width="4.2" height="4.2"/>
	<rect x="587" y="246" class="st0" width="4.2" height="4.2"/>
	<rect x="497.9" y="568.5" class="st0" width="4.2" height="4.2"/>
	<rect x="497.9" y="560" class="st0" width="4.2" height="4.2"/>
	<rect x="285.8" y="424.2" class="st0" width="4.2" height="8.5"/>
	<rect x="531.9" y="483.6" class="st0" width="17" height="4.2"/>
	<polygon class="st0" points="587,534.5 582.8,534.5 582.8,538.8 578.5,538.8 578.5,543 587,543 587,538.8 591.2,538.8 591.2,530.3 
		587,530.3 	"/>
	<polygon class="st0" points="502.2,526 502.2,517.5 497.9,517.5 497.9,521.8 493.7,521.8 493.7,534.5 489.4,534.5 489.4,538.8 
		493.7,538.8 493.7,547.2 497.9,547.2 497.9,526 	"/>
	<rect x="502.2" y="564.2" class="st0" width="4.2" height="4.2"/>
	<rect x="497.9" y="576.9" class="st0" width="4.2" height="4.2"/>
	<rect x="502.2" y="572.7" class="st0" width="4.2" height="4.2"/>
	<rect x="502.2" y="555.7" class="st0" width="4.2" height="4.2"/>
	<polygon class="st0" points="519.1,657.5 519.1,661.8 523.4,661.8 523.4,653.3 514.9,653.3 514.9,657.5 	"/>
	<rect x="497.9" y="547.2" class="st0" width="4.2" height="8.5"/>
	<rect x="502.2" y="513.3" class="st0" width="8.5" height="4.2"/>
	<polygon class="st0" points="502.2,674.5 502.2,683 506.4,683 506.4,678.8 510.6,678.8 510.6,674.5 	"/>
	<polygon class="st0" points="514.9,678.8 510.6,678.8 510.6,683 523.4,683 523.4,674.5 527.6,674.5 527.6,670.3 523.4,670.3 
		523.4,666 519.1,666 519.1,661.8 514.9,661.8 	"/>
	<polygon class="st0" points="523.4,504.8 519.1,504.8 519.1,509.1 510.6,509.1 510.6,513.3 523.4,513.3 	"/>
	<polygon class="st0" points="548.8,610.9 548.8,623.6 540.3,623.6 540.3,644.8 544.6,644.8 544.6,627.8 553.1,627.8 553.1,615.1 
		557.3,615.1 557.3,598.1 553.1,598.1 553.1,610.9 	"/>
	<rect x="523.4" y="649.1" class="st0" width="4.2" height="4.2"/>
	<polygon class="st0" points="383.4,627.8 379.1,627.8 379.1,623.6 374.9,623.6 374.9,632.1 383.4,632.1 	"/>
	<polygon class="st0" points="531.9,653.3 536.1,653.3 536.1,649.1 540.3,649.1 540.3,644.8 531.9,644.8 	"/>
	<polygon class="st0" points="324,589.7 324,585.4 328.2,585.4 328.2,581.2 324,581.2 324,576.9 319.7,576.9 319.7,581.2 
		311.2,581.2 311.2,589.7 	"/>
	<rect x="332.5" y="598.1" class="st0" width="4.2" height="4.2"/>
	<rect x="281.5" y="479.4" class="st0" width="4.2" height="4.2"/>
	<rect x="557.3" y="593.9" class="st0" width="4.2" height="4.2"/>
	<rect x="243.4" y="610.9" class="st0" width="4.2" height="4.2"/>
	<polygon class="st0" points="349.4,585.4 349.4,598.1 340.9,598.1 340.9,606.6 345.2,606.6 345.2,602.4 353.7,602.4 353.7,593.9 
		362.2,593.9 362.2,598.1 374.9,598.1 374.9,589.7 379.1,589.7 379.1,585.4 366.4,585.4 366.4,581.2 362.2,581.2 362.2,589.7 
		357.9,589.7 357.9,585.4 353.7,585.4 353.7,581.2 340.9,581.2 340.9,585.4 	"/>
	<polygon class="st0" points="247.6,615.1 247.6,619.4 243.4,619.4 243.4,623.6 247.6,623.6 247.6,632.1 251.9,632.1 251.9,615.1 	
		"/>
	<rect x="391.9" y="483.6" class="st0" width="8.5" height="4.2"/>
	<polygon class="st0" points="497.9,632.1 502.2,632.1 502.2,627.8 510.6,627.8 510.6,623.6 514.9,623.6 514.9,615.1 519.1,615.1 
		519.1,598.1 506.4,598.1 506.4,589.7 497.9,589.7 497.9,593.9 502.2,593.9 502.2,602.4 506.4,602.4 506.4,606.6 514.9,606.6 
		514.9,610.9 510.6,610.9 510.6,619.4 506.4,619.4 506.4,623.6 497.9,623.6 497.9,627.8 493.7,627.8 493.7,640.6 497.9,640.6 	"/>
	<rect x="493.7" y="644.8" class="st0" width="4.2" height="4.2"/>
	<polygon class="st0" points="553.1,521.8 557.3,521.8 557.3,517.5 540.3,517.5 540.3,521.8 544.6,521.8 544.6,530.3 553.1,530.3 	
		"/>
	<rect x="489.4" y="640.6" class="st0" width="4.2" height="4.2"/>
	<path class="st0" d="M578.5,500.6v4.2h-4.2v4.2h-8.5v-4.2h-8.5v-4.2h-4.2v-4.2h-8.5v-4.2h-4.2v4.2h-4.2v4.2h-4.2v4.2h-4.2v8.5h-4.2
		v4.2h-8.5v4.2h-8.5v4.2h-4.2v21.2h4.2v4.2h4.2v8.5h-4.2v4.2h4.2v4.2h-4.2v4.2h4.2v4.2h-4.2v4.2h4.2v12.7h12.7v4.2h4.2v8.5h-4.2
		v12.7h-4.2v8.5h-4.2v4.2h-8.5v4.2h-4.2v12.7h-4.2v8.5h4.2v12.7h8.5v-17h4.2v-4.2h4.2v-4.2h12.7v-4.2h4.2v-12.7h-4.2v-8.5h-4.2v-4.2
		h4.2v-8.5h12.7v-4.2h4.2v-4.2h4.2v-12.7h4.2v-4.2h-4.2v-12.7h4.2v-12.7h4.2v-4.2h-4.2v-4.2h8.5V543h4.2v-4.2h4.2v-4.2h8.5v-4.2h4.2
		v-8.5h8.5v4.2h-4.2v4.2h8.5v-12.7h4.2v-4.2h-8.5v4.2h-4.2v-17H587v-4.2h-4.2v4.2L578.5,500.6L578.5,500.6z M561.5,530.3h-4.2v4.2
		h-12.7v-4.2h-4.2v-8.5h-4.2v-4.2h4.2v-4.2h4.2v-4.2h8.5v4.2h4.2v4.2h4.2V530.3z"/>
	<rect x="502.2" y="581.2" class="st0" width="4.2" height="4.2"/>
	<polygon class="st0" points="497.9,670.3 497.9,666 489.4,666 489.4,670.3 493.7,670.3 493.7,674.5 502.2,674.5 502.2,670.3 	"/>
	<polygon class="st0" points="599.7,492.1 595.5,492.1 595.5,487.8 599.7,487.8 599.7,483.6 595.5,483.6 595.5,479.4 599.7,479.4 
		599.7,470.9 595.5,470.9 595.5,458.1 591.2,458.1 591.2,462.4 582.8,462.4 582.8,466.6 591.2,466.6 591.2,479.4 582.8,479.4 
		582.8,466.6 578.5,466.6 578.5,470.9 574.3,470.9 574.3,479.4 578.5,479.4 578.5,483.6 582.8,483.6 582.8,487.8 578.5,487.8 
		578.5,492.1 574.3,492.1 574.3,496.3 561.5,496.3 561.5,500.6 570,500.6 570,504.8 574.3,504.8 574.3,500.6 578.5,500.6 
		578.5,496.3 582.8,496.3 582.8,492.1 591.2,492.1 591.2,496.3 595.5,496.3 595.5,509.1 604,509.1 604,504.8 599.7,504.8 	"/>
	<rect x="489.4" y="649.1" class="st0" width="4.2" height="8.5"/>
	<rect x="493.7" y="657.5" class="st0" width="4.2" height="4.2"/>
	<polygon class="st0" points="179.7,356.3 179.7,352.1 175.5,352.1 175.5,326.6 171.2,326.6 171.2,360.6 175.5,360.6 175.5,356.3 	
		"/>
	<polygon class="st0" points="366.4,632.1 370.6,632.1 370.6,623.6 362.2,623.6 362.2,627.8 366.4,627.8 	"/>
	<rect x="357.9" y="627.8" class="st0" width="4.2" height="4.2"/>
	<rect x="332.5" y="619.4" class="st0" width="4.2" height="4.2"/>
	<rect x="336.7" y="623.6" class="st0" width="21.2" height="4.2"/>
	<polygon class="st0" points="396.1,657.5 396.1,649.1 391.9,649.1 391.9,644.8 387.6,644.8 387.6,657.5 	"/>
	<rect x="383.4" y="632.1" class="st0" width="4.2" height="12.7"/>
	<polygon class="st0" points="345.2,509.1 340.9,509.1 340.9,530.3 345.2,530.3 345.2,513.3 349.4,513.3 349.4,504.8 345.2,504.8 	
		"/>
	<polygon class="st0" points="315.5,695.7 324,695.7 324,691.5 328.2,691.5 328.2,670.3 319.7,670.3 319.7,666 311.2,666 
		311.2,657.5 315.5,657.5 315.5,649.1 311.2,649.1 311.2,644.8 307,644.8 307,670.3 315.5,670.3 315.5,674.5 324,674.5 324,687.2 
		311.2,687.2 311.2,683 307,683 307,678.8 302.8,678.8 302.8,687.2 307,687.2 307,691.5 315.5,691.5 	"/>
	<rect x="290" y="555.7" class="st0" width="17" height="4.2"/>
	<polygon class="st0" points="391.9,678.8 391.9,687.2 396.1,687.2 396.1,683 400.3,683 400.3,670.3 404.6,670.3 404.6,666 
		400.3,666 400.3,657.5 396.1,657.5 396.1,678.8 	"/>
	<rect x="298.5" y="674.5" class="st0" width="4.2" height="4.2"/>
	<rect x="294.3" y="661.8" class="st0" width="4.2" height="12.7"/>
	<polygon class="st0" points="298.5,564.2 285.8,564.2 285.8,568.5 290,568.5 290,572.7 298.5,572.7 	"/>
	<polygon class="st0" points="311.2,564.2 311.2,572.7 298.5,572.7 298.5,589.7 294.3,589.7 294.3,602.4 290,602.4 290,606.6 
		281.5,606.6 281.5,615.1 285.8,615.1 285.8,627.8 290,627.8 290,632.1 285.8,632.1 285.8,636.3 290,636.3 290,657.5 298.5,657.5 
		298.5,653.3 294.3,653.3 294.3,636.3 298.5,636.3 298.5,644.8 307,644.8 307,636.3 302.8,636.3 302.8,632.1 298.5,632.1 
		298.5,610.9 294.3,610.9 294.3,606.6 298.5,606.6 298.5,602.4 307,602.4 307,606.6 315.5,606.6 315.5,610.9 319.7,610.9 
		319.7,615.1 328.2,615.1 328.2,619.4 332.5,619.4 332.5,610.9 324,610.9 324,606.6 319.7,606.6 319.7,598.1 324,598.1 324,602.4 
		328.2,602.4 328.2,598.1 332.5,598.1 332.5,593.9 315.5,593.9 315.5,598.1 311.2,598.1 311.2,593.9 307,593.9 307,589.7 
		302.8,589.7 302.8,581.2 311.2,581.2 311.2,576.9 315.5,576.9 315.5,568.5 319.7,568.5 319.7,560 324,560 324,564.2 328.2,564.2 
		328.2,572.7 332.5,572.7 332.5,581.2 340.9,581.2 340.9,576.9 336.7,576.9 336.7,572.7 340.9,572.7 340.9,568.5 349.4,568.5 
		349.4,555.7 336.7,555.7 336.7,560 332.5,560 332.5,555.7 315.5,555.7 315.5,564.2 	"/>
	<polygon class="st0" points="222.2,466.6 222.2,470.9 226.4,470.9 226.4,462.4 217.9,462.4 217.9,466.6 	"/>
	<polygon class="st0" points="205.2,479.4 200.9,479.4 200.9,475.1 205.2,475.1 205.2,462.4 217.9,462.4 217.9,458.1 200.9,458.1 
		200.9,466.6 184,466.6 184,470.9 179.7,470.9 179.7,483.6 184,483.6 184,479.4 188.2,479.4 188.2,483.6 192.5,483.6 192.5,479.4 
		196.7,479.4 196.7,487.8 200.9,487.8 200.9,492.1 205.2,492.1 	"/>
	<polygon class="st0" points="230.6,475.1 230.6,479.4 239.1,479.4 239.1,475.1 234.9,475.1 234.9,470.9 226.4,470.9 226.4,475.1 	
		"/>
	<polygon class="st0" points="200.9,496.3 200.9,492.1 196.7,492.1 196.7,504.8 200.9,504.8 200.9,513.3 205.2,513.3 205.2,496.3 	
		"/>
	<polygon class="st0" points="243.4,483.6 243.4,487.8 251.9,487.8 251.9,483.6 247.6,483.6 247.6,479.4 239.1,479.4 239.1,483.6 	
		"/>
	<polygon class="st0" points="256.1,492.1 256.1,496.3 260.3,496.3 260.3,492.1 273.1,492.1 273.1,487.8 281.5,487.8 281.5,483.6 
		268.8,483.6 268.8,487.8 251.9,487.8 251.9,492.1 	"/>
	<polygon class="st0" points="387.6,691.5 383.4,691.5 383.4,712.7 391.9,712.7 391.9,704.2 387.6,704.2 387.6,695.7 391.9,695.7 
		391.9,687.2 387.6,687.2 	"/>
	<polygon class="st0" points="311.2,716.9 311.2,712.7 307,712.7 307,708.5 294.3,708.5 294.3,704.2 285.8,704.2 285.8,695.7 
		281.5,695.7 281.5,687.2 277.3,687.2 277.3,683 273.1,683 273.1,691.5 277.3,691.5 277.3,700 281.5,700 281.5,708.5 290,708.5 
		290,712.7 294.3,712.7 294.3,716.9 307,716.9 307,721.2 315.5,721.2 315.5,716.9 	"/>
	<rect x="315.5" y="721.2" class="st0" width="8.5" height="4.2"/>
	<polygon class="st0" points="362.2,729.7 362.2,733.9 357.9,733.9 357.9,742.4 345.2,742.4 345.2,738.1 349.4,738.1 349.4,733.9 
		345.2,733.9 345.2,729.7 340.9,729.7 340.9,725.4 332.5,725.4 332.5,721.2 328.2,721.2 328.2,725.4 324,725.4 324,729.7 
		336.7,729.7 336.7,742.4 340.9,742.4 340.9,746.6 349.4,746.6 349.4,750.9 353.7,750.9 353.7,746.6 362.2,746.6 362.2,742.4 
		366.4,742.4 366.4,733.9 383.4,733.9 383.4,725.4 379.1,725.4 379.1,729.7 	"/>
	<rect x="251.9" y="632.1" class="st0" width="4.2" height="8.5"/>
	<rect x="268.8" y="674.5" class="st0" width="4.2" height="8.5"/>
	<rect x="587" y="229.1" class="st0" width="4.2" height="4.2"/>
	<rect x="633.7" y="432.7" class="st0" width="4.2" height="8.5"/>
	<polygon class="st0" points="633.7,445.4 633.7,449.7 629.4,449.7 629.4,453.9 616.7,453.9 616.7,449.7 608.2,449.7 608.2,453.9 
		612.5,453.9 612.5,458.1 633.7,458.1 633.7,453.9 637.9,453.9 637.9,449.7 642.2,449.7 642.2,441.2 637.9,441.2 637.9,445.4 	"/>
	<polygon class="st0" points="595.5,441.2 595.5,445.4 604,445.4 604,449.7 608.2,449.7 608.2,441.2 	"/>
	<rect x="629.4" y="428.5" class="st0" width="4.2" height="4.2"/>
	<rect x="285.8" y="483.6" class="st0" width="12.7" height="4.2"/>
	<polygon class="st0" points="570,436.9 570,445.4 574.3,445.4 574.3,441.2 582.8,441.2 582.8,445.4 587,445.4 587,441.2 
		595.5,441.2 595.5,436.9 	"/>
	<polygon class="st0" points="565.8,432.7 565.8,424.2 557.3,424.2 557.3,432.7 548.8,432.7 548.8,441.2 553.1,441.2 553.1,436.9 
		570,436.9 570,432.7 	"/>
	<polygon class="st0" points="646.4,233.3 646.4,229.1 642.2,229.1 642.2,237.5 646.4,237.5 646.4,288.5 642.2,288.5 642.2,296.9 
		637.9,296.9 637.9,356.3 633.7,356.3 633.7,360.6 629.4,360.6 629.4,411.5 633.7,411.5 633.7,369.1 637.9,369.1 637.9,360.6 
		642.2,360.6 642.2,318.1 646.4,318.1 646.4,313.9 642.2,313.9 642.2,301.2 646.4,301.2 646.4,292.7 650.6,292.7 650.6,233.3 	"/>
	<polygon class="st0" points="260.3,123 256.1,123 256.1,127.2 264.6,127.2 264.6,118.8 260.3,118.8 	"/>
	<polygon class="st0" points="625.2,424.2 620.9,424.2 620.9,428.5 629.4,428.5 629.4,411.5 625.2,411.5 	"/>
	<polygon class="st0" points="264.6,118.8 268.8,118.8 268.8,114.5 273.1,114.5 273.1,110.3 264.6,110.3 	"/>
	<rect x="260.3" y="428.5" class="st0" width="21.2" height="4.2"/>
	<path class="st0" d="M553.1,428.5v-4.2h4.2v-12.7H570v17h4.2v4.2h25.5v4.2h8.5v4.2h4.2v4.2h8.5v4.2h8.5v-12.7h-4.2v-4.2h-4.2v-4.2
		h-4.2V420h4.2v-8.5h4.2v-29.7h-4.2v-4.2h4.2v-4.2h-4.2v-8.5h-4.2v-8.5h-4.2v-4.2h-4.2v-17H604v-17h4.2v-4.2h12.7v4.2h12.7v-8.5
		h-4.2v-8.5h4.2v-8.5h4.2v-4.2h4.2V280h-4.2v-4.2h-8.5v-4.2h-4.2v-4.2h-4.2v-8.5h4.2v-4.2h-4.2v-17h-4.2v-12.7h4.2v-21.2h-4.2v-4.2
		h-4.2v-8.5h-12.7v-4.2h-4.2v-4.2h-4.2v-4.2H587v-4.2h4.2v-4.2H587v-4.2h-4.2v-4.2h-4.2v-8.5H570v-8.5h-4.2V140h-8.5v-4.2h-8.5v4.2
		h4.2v4.2h4.2v4.2h4.2v8.5h4.2v8.5h4.2v4.2h4.2v4.2h8.5v8.5h4.2v8.5h4.2v4.2h4.2v12.7h4.2v12.7h-4.2v4.2h4.2v4.2h-4.2v4.2h4.2v21.2
		h-4.2v4.2h4.2v4.2h-4.2v8.5h-4.2v8.5H587v12.7h-4.2v12.7h4.2v8.5h4.2v4.2h-12.7v12.7h4.2v-8.5h4.2v17h-17v-4.2h-8.5v-8.5h-4.2v-8.5
		h-4.2v-4.2h-4.2v-4.2h-12.7v-4.2h-42.4v-17h4.2v-4.2h-4.2V280h-8.5v4.2h-8.5v4.2h-4.2v4.2h4.2v4.2h-4.2v8.5h-17v4.2H447v4.2h-8.5
		v8.5h-4.2v8.5H430v17h-4.2v-17h-4.2v12.7h-4.2v8.5H430v17h-4.2v4.2h4.2v4.2h4.2v8.5h4.2v4.2H430v4.2h-4.2v-4.2h-8.5v-8.5h-4.2v-8.5
		h-4.2v-4.2h-17v-4.2h-4.2v-4.2h-8.5v4.2h-4.2v-4.2h-4.2v-12.7h-4.2v-12.7h-8.5v-8.5h-4.2v-8.5h4.2v-12.7h-8.5v4.2h-4.2v-4.2h-4.2
		v4.2h-8.5v-12.7h-4.2v-4.2h-12.7v4.2h8.5v4.2h4.2v4.2H324v-4.2h-12.7v-4.2H307v4.2h-4.2v-4.2h-4.2v4.2h-4.2v-8.5h21.2v-4.2h-46.7
		v4.2H290v8.5h-4.2v-4.2h-8.5v4.2h-4.2v-4.2h-4.2v4.2h-4.2v4.2h-12.7v4.2h-8.5v4.2h-4.2v8.5h-8.5v4.2h-12.7v-4.2h-4.2v-12.7h-4.2
		v-8.5h4.2v-4.2h-4.2v-4.2h4.2v-4.2h-4.2v-17h4.2v12.7h4.2v-8.5h4.2v-4.2h-4.2v-4.2h-8.5v-8.5h4.2v-4.2h4.2v4.2h4.2v-8.5h-4.2v-8.5
		h8.5v-4.2h-8.5v-4.2h-4.2v-4.2h-4.2v-4.2h-4.2v-8.5h4.2v-4.2h4.2v-8.5h4.2v-8.5h-4.2v-8.5h4.2v4.2h4.2v-17h-4.2v8.5h-8.5v-8.5h-4.2
		v8.5H201v4.2h-4.3v12.7h-4.2v8.5h-4.2v8.5H184v8.5h-8.5V246h4.2v12.7h4.2v12.7h-4.2v4.2h4.2v33.9h-4.2v4.2h4.2v17h-4.2v21.2h4.2
		v4.2h-4.2v4.2h4.2v4.2h-4.2v-4.2h-4.2v4.2h-4.2v4.2H184v21.2h-4.2v4.2h4.2v4.2h-4.2V420h4.2v4.2h-4.2v4.2h4.2v12.7h4.2v4.2h4.2
		v-4.2h8.5v-8.5h-4.2v-4.2h4.2v-29.7h4.2v-4.2h8.5v4.2h4.2v4.2h8.5v12.7h4.2v4.2h8.5v4.2h33.9V420h4.2v4.2h8.5V420h4.2v4.2h12.7v4.2
		h8.5v8.5h8.5v4.2h4.2v4.2h4.2v8.5h4.2v33.9h-4.2v4.2h4.2v4.2h-4.2v8.5h4.2v4.2h-4.2v4.2H324V509h-12.7v-4.2H307v-4.2h-4.2v-4.2
		h-4.2v-4.2h-4.2v4.2H290v-4.2h-17v4.2h-4.2v4.2h4.2v4.2h4.2v8.5h4.2v4.2h-4.2v8.5h-12.7v-12.7h-4.2V509h4.2v-8.5h-8.5v-4.2h-8.5
		v-4.2h-4.2v4.2h-4.2v4.2h4.2v8.5h-4.2v4.2h-8.5v-8.5h-4.2v-4.2h4.2v-4.2h4.2v-4.2h4.2v-4.2h-4.2v-4.2h-4.2v-4.2h-8.5v-8.5h-12.7
		v38.2h4.2v4.2h8.5v4.2h8.5v4.2h4.2v4.2h4.2v8.5h4.2v21.2h4.2v8.5h4.2v4.2h-4.2v17h-4.2v-21.2h-4.2v-25.5h-4.2v-8.5h-4.2V526h-4.2
		v-4.2h-4.2v-4.2h-8.5v-4.2h-8.5v4.2h4.2v4.2h8.5v4.2h4.2v4.2h4.2v4.2h4.2v8.5h4.2v4.2h-4.2v4.2h4.2v4.2h-4.2v8.5h4.2v4.2h4.2v17
		h-4.2v4.2h4.2v8.5h4.2v-8.5h4.2v4.2h4.2v8.5h-4.2v-4.2h-4.2v8.5h12.7v4.2h-4.2v4.2h4.2v12.7h4.2v12.7h4.2v12.7h4.2v8.5h4.2v4.2h4.2
		v12.7h4.2v4.2h8.5v8.5h4.2v4.2H290v4.2h12.7v4.2h8.5v8.5h8.5v4.2h25.5v4.2h4.2v4.2h29.7v-4.2h4.2v-4.2h-4.2v-8.5h-4.2v-4.2h4.2V700
		h-4.2v-4.2h4.2v-4.2h4.2V683h4.2v-4.2h4.2v-17h-4.2v-4.2h-4.2V649h-4.2v-12.7h-4.2v-4.2h-4.2v4.2h-4.2v-4.2h-4.2v4.2h-4.2v-4.2
		h-25.5v-8.5H324v-4.2h-4.2v-4.2h-8.5v-4.2h-8.5v12.7h4.2v12.7h4.2v4.2h4.2v4.2h8.5v4.2h4.2v4.2H324v4.2h-4.2v4.2h4.2v4.2h4.2v-4.2
		h4.2v4.2h4.2v8.5h-4.2v21.2h-4.2v4.2h-17v-4.2H307v-4.2h-4.2v-4.2h-4.2V683h-4.2v-4.2H290v-21.2h-4.2v-12.7h-4.2v-4.2h4.2v-4.2
		h-4.2v-21.2h-4.2v-12.7h4.2v-4.2h8.5v-17h4.2v-4.2H290v-4.2h-8.5v-4.2h-4.2v-4.2h-8.5V560h8.5v4.2h8.5V560h-4.2v-4.2h8.5v-4.2h-4.2
		v-4.2h-8.5v8.5h-8.5v-4.2h4.2V543h4.2v-4.2h8.5v8.5h12.7v4.2h4.2v-4.2h4.2V543h4.2v8.5H307v4.2h8.5v-8.5h17V543h8.5v-12.7h-4.2v8.5
		H324v4.2h-8.5v-4.2h4.2v-4.2h12.7V526h4.2v-4.2h-4.2v-4.2h4.2v-8.5h4.2v-4.2h4.2v-8.5h8.5v-4.2h4.2v-4.2h25.5v-4.2h8.5v-4.2h4.2
		v-4.2h4.2v4.2h4.2v-4.2h4.2v4.2h8.5v4.2h4.2v4.2h4.2v-4.2h4.2v-4.2h8.5v-17h4.2v-4.2h-4.2v-4.2h4.2v-29.7h4.2V420h12.7v4.2h8.5v4.2
		h12.7v4.2h8.5v4.2h4.2v4.2h12.7v4.2h4.2v4.2h8.5v-4.2h12.7v-4.2h4.2v-4.2h8.5v-4.2h4.2v-4.2L553.1,428.5L553.1,428.5z M595.5,420
		h-4.2v4.2H587V420h-4.2v-8.5h4.2v-4.2h4.2v4.2h4.2V420z M570,386h4.2v-4.2h4.2v-12.7h8.5v-4.2h4.2v4.2h4.2v8.5h4.2v4.2h-4.2v12.7
		h-4.2v4.2H587v4.2h-17L570,386L570,386z M268.8,364.8h-4.2v8.5h-8.5v-4.2h-8.5v-25.5h12.7v8.5h4.2v8.5h4.2L268.8,364.8L268.8,364.8
		z M340.9,683h4.2v-4.2h4.2v-4.2h4.2v-12.7h-4.2v-4.2h4.2v-4.2h8.5v4.2h8.5v12.7h-4.2V683h-4.2v8.5h-4.2v4.2h-4.2v-4.2h-4.2v4.2
		h-4.2v-4.2h-4.2L340.9,683L340.9,683z M506.4,403h-4.2v4.2h-4.2V403h-4.2v-4.2h4.2v-4.2h8.5L506.4,403L506.4,403z"/>
	<rect x="357.9" y="551.5" class="st0" width="4.2" height="8.5"/>
	<polygon class="st0" points="434.3,487.8 430,487.8 430,492.1 438.5,492.1 438.5,483.6 434.3,483.6 	"/>
	<polygon class="st0" points="408.8,483.6 408.8,479.4 404.6,479.4 404.6,487.8 413.1,487.8 413.1,483.6 	"/>
	<polygon class="st0" points="421.5,487.8 413.1,487.8 413.1,492.1 417.3,492.1 417.3,496.3 430,496.3 430,492.1 421.5,492.1 	"/>
	<rect x="349.4" y="500.6" class="st0" width="4.2" height="4.2"/>
	<rect x="353.7" y="496.3" class="st0" width="8.5" height="4.2"/>
	<polygon class="st0" points="383.4,492.1 362.2,492.1 362.2,496.3 387.6,496.3 387.6,492.1 391.9,492.1 391.9,487.8 383.4,487.8 	
		"/>
	<polygon class="st0" points="442.8,479.4 438.5,479.4 438.5,483.6 447,483.6 447,462.4 442.8,462.4 	"/>
	<polygon class="st0" points="455.5,428.5 455.5,424.2 451.2,424.2 451.2,432.7 468.2,432.7 468.2,428.5 	"/>
	<polygon class="st0" points="523.4,449.7 523.4,453.9 506.4,453.9 506.4,449.7 502.2,449.7 502.2,445.4 489.4,445.4 489.4,449.7 
		497.9,449.7 497.9,453.9 502.2,453.9 502.2,458.1 527.6,458.1 527.6,453.9 536.1,453.9 536.1,449.7 544.6,449.7 544.6,441.2 
		540.3,441.2 540.3,445.4 531.9,445.4 531.9,449.7 	"/>
	<polygon class="st0" points="587,394.5 587,390.3 591.2,390.3 591.2,377.5 587,377.5 587,373.3 582.8,373.3 582.8,381.8 
		578.5,381.8 578.5,394.5 	"/>
	<polygon class="st0" points="447,453.9 442.8,453.9 442.8,458.1 447,458.1 447,462.4 451.2,462.4 451.2,432.7 447,432.7 	"/>
	<rect x="256.1" y="356.3" class="st0" width="4.2" height="8.5"/>
	<polygon class="st0" points="485.2,441.2 485.2,436.9 476.7,436.9 476.7,432.7 468.2,432.7 468.2,441.2 480.9,441.2 480.9,445.4 
		489.4,445.4 489.4,441.2 	"/>
	<polygon class="st0" points="264.6,661.8 264.6,653.3 260.3,653.3 260.3,640.6 256.1,640.6 256.1,644.8 251.9,644.8 251.9,649.1 
		256.1,649.1 256.1,657.5 260.3,657.5 260.3,666 264.6,666 264.6,674.5 268.8,674.5 268.8,661.8 	"/>
	<rect x="578.5" y="190.9" class="st0" width="4.2" height="4.2"/>
	<polygon class="st0" points="595.5,233.3 591.2,233.3 591.2,237.5 587,237.5 587,241.8 591.2,241.8 591.2,246 595.5,246 	"/>
	<rect x="591.2" y="216.3" class="st0" width="4.2" height="4.2"/>
	<polygon class="st0" points="595.5,212.1 595.5,207.8 591.2,207.8 591.2,199.4 587,199.4 587,216.3 591.2,216.3 591.2,212.1 	"/>
	<rect x="582.8" y="195.1" class="st0" width="4.2" height="4.2"/>
	<rect x="268.8" y="513.3" class="st0" width="4.2" height="4.2"/>
	<rect x="425.8" y="322.4" class="st0" width="4.2" height="8.5"/>
	<polygon class="st0" points="442.8,305.4 447,305.4 447,301.2 438.5,301.2 438.5,309.7 442.8,309.7 	"/>
	<polygon class="st0" points="434.3,313.9 438.5,313.9 438.5,309.7 430,309.7 430,322.4 434.3,322.4 	"/>
	<polygon class="st0" points="468.2,288.5 472.5,288.5 472.5,280 468.2,280 468.2,284.2 464,284.2 464,296.9 447,296.9 447,301.2 
		468.2,301.2 	"/>
	<polygon class="st0" points="570,330.9 570,335.1 578.5,335.1 578.5,330.9 574.3,330.9 574.3,326.6 570,326.6 570,322.4 
		565.8,322.4 565.8,330.9 	"/>
	<polygon class="st0" points="557.3,318.1 561.5,318.1 561.5,322.4 565.8,322.4 565.8,313.9 561.5,313.9 561.5,305.4 553.1,305.4 
		553.1,301.2 544.6,301.2 544.6,305.4 548.8,305.4 548.8,309.7 557.3,309.7 	"/>
	<polygon class="st0" points="595.5,263 595.5,258.8 591.2,258.8 591.2,254.5 587,254.5 587,267.2 582.8,267.2 582.8,271.5 
		578.5,271.5 578.5,284.2 574.3,284.2 574.3,309.7 578.5,309.7 578.5,288.5 582.8,288.5 582.8,275.7 587,275.7 587,271.5 
		591.2,271.5 591.2,263 	"/>
	<rect x="591.2" y="224.8" class="st0" width="4.2" height="4.2"/>
	<rect x="604" y="182.4" class="st0" width="4.2" height="4.2"/>
	<polygon class="st0" points="591.2,161.2 591.2,165.4 595.5,165.4 595.5,182.4 604,182.4 604,178.1 599.7,178.1 599.7,165.4 
		604,165.4 604,161.2 599.7,161.2 599.7,156.9 595.5,156.9 595.5,152.7 587,152.7 587,161.2 	"/>
	<polygon class="st0" points="629.4,267.2 637.9,267.2 637.9,258.8 633.7,258.8 633.7,254.5 637.9,254.5 637.9,250.3 633.7,250.3 
		633.7,241.8 625.2,241.8 625.2,246 629.4,246 	"/>
	<polygon class="st0" points="612.5,186.6 616.7,186.6 616.7,190.9 620.9,190.9 620.9,199.4 625.2,199.4 625.2,207.8 629.4,207.8 
		629.4,216.3 633.7,216.3 633.7,224.8 637.9,224.8 637.9,229.1 642.2,229.1 642.2,220.6 637.9,220.6 637.9,212.1 633.7,212.1 
		633.7,203.6 629.4,203.6 629.4,195.1 625.2,195.1 625.2,186.6 620.9,186.6 620.9,182.4 616.7,182.4 616.7,178.1 608.2,178.1 
		608.2,182.4 612.5,182.4 	"/>
	<rect x="587" y="220.6" class="st0" width="4.2" height="4.2"/>
	<polygon class="st0" points="612.5,322.4 608.2,322.4 608.2,326.6 612.5,326.6 612.5,343.6 616.7,343.6 616.7,356.3 620.9,356.3 
		620.9,360.6 625.2,360.6 625.2,356.3 629.4,356.3 629.4,343.6 625.2,343.6 625.2,339.4 620.9,339.4 620.9,330.9 625.2,330.9 
		625.2,326.6 620.9,326.6 620.9,318.1 612.5,318.1 	"/>
	<polygon class="st0" points="548.8,144.2 548.8,140 544.6,140 544.6,148.5 548.8,148.5 548.8,156.9 553.1,156.9 553.1,144.2 	"/>
	<rect x="578.5" y="148.5" class="st0" width="8.5" height="4.2"/>
	<polygon class="st0" points="574.3,182.4 574.3,178.1 570,178.1 570,173.9 565.8,173.9 565.8,182.4 570,182.4 570,186.6 
		574.3,186.6 574.3,190.9 578.5,190.9 578.5,182.4 	"/>
	<rect x="561.5" y="165.4" class="st0" width="4.2" height="8.5"/>
	<rect x="553.1" y="156.9" class="st0" width="8.5" height="8.5"/>
	<polygon class="st0" points="574.3,144.2 574.3,148.5 578.5,148.5 578.5,140 574.3,140 574.3,135.7 570,135.7 570,144.2 	"/>
	<polygon class="st0" points="540.3,135.7 540.3,131.5 544.6,131.5 544.6,127.2 553.1,127.2 553.1,131.5 561.5,131.5 561.5,135.7 
		570,135.7 570,131.5 565.8,131.5 565.8,127.2 561.5,127.2 561.5,123 540.3,123 540.3,127.2 536.1,127.2 536.1,140 544.6,140 
		544.6,135.7 	"/>
	<rect x="591.2" y="250.3" class="st0" width="4.2" height="4.2"/>
	<polygon class="st0" points="179.7,318.1 175.5,318.1 175.5,309.7 179.7,309.7 179.7,301.2 175.5,301.2 175.5,305.4 171.2,305.4 
		171.2,322.4 175.5,322.4 175.5,326.6 179.7,326.6 	"/>
	<polygon class="st0" points="179.7,275.7 175.5,275.7 175.5,284.2 171.2,284.2 171.2,292.7 175.5,292.7 175.5,296.9 179.7,296.9 	
		"/>
	<polygon class="st0" points="188.2,445.4 179.7,445.4 179.7,441.2 175.5,441.2 175.5,436.9 179.7,436.9 179.7,428.5 175.5,428.5 
		175.5,398.8 179.7,398.8 179.7,394.5 171.2,394.5 171.2,403 167,403 167,407.2 171.2,407.2 171.2,411.5 167,411.5 167,415.7 
		171.2,415.7 171.2,436.9 158.5,436.9 158.5,449.7 162.8,449.7 162.8,453.9 167,453.9 167,458.1 175.5,458.1 175.5,462.4 
		179.7,462.4 179.7,453.9 196.7,453.9 196.7,449.7 188.2,449.7 	"/>
	<rect x="171.2" y="246" class="st0" width="4.2" height="12.7"/>
	<polygon class="st0" points="205.2,445.4 196.7,445.4 196.7,449.7 209.4,449.7 209.4,428.5 213.7,428.5 213.7,424.2 209.4,424.2 
		209.4,411.5 217.9,411.5 217.9,415.7 222.2,415.7 222.2,407.2 217.9,407.2 217.9,403 205.2,403 	"/>
	<rect x="175.5" y="258.8" class="st0" width="4.2" height="12.7"/>
	<polygon class="st0" points="175.5,220.6 179.7,220.6 179.7,212.1 175.5,212.1 175.5,216.3 171.2,216.3 171.2,224.8 175.5,224.8 	
		"/>
	<polygon class="st0" points="311.2,496.3 311.2,500.6 315.5,500.6 315.5,504.8 324,504.8 324,487.8 319.7,487.8 319.7,496.3 
		315.5,496.3 315.5,492.1 307,492.1 307,496.3 	"/>
	<rect x="298.5" y="487.8" class="st0" width="8.5" height="4.2"/>
	<polygon class="st0" points="328.2,453.9 324,453.9 324,458.1 319.7,458.1 319.7,462.4 324,462.4 324,487.8 328.2,487.8 	"/>
	<rect x="319.7" y="449.7" class="st0" width="4.2" height="4.2"/>
	<polygon class="st0" points="315.5,445.4 315.5,441.2 311.2,441.2 311.2,436.9 307,436.9 307,445.4 311.2,445.4 311.2,449.7 
		319.7,449.7 319.7,445.4 	"/>
	<polygon class="st0" points="302.8,432.7 302.8,428.5 294.3,428.5 294.3,432.7 298.5,432.7 298.5,436.9 307,436.9 307,432.7 	"/>
	<polygon class="st0" points="417.3,369.1 417.3,373.3 421.5,373.3 421.5,369.1 425.8,369.1 425.8,356.3 417.3,356.3 417.3,360.6 
		421.5,360.6 421.5,364.8 408.8,364.8 408.8,369.1 	"/>
	<rect x="366.4" y="330.9" class="st0" width="4.2" height="4.2"/>
	<polygon class="st0" points="379.1,343.6 379.1,339.4 383.4,339.4 383.4,335.1 391.9,335.1 391.9,326.6 383.4,326.6 383.4,330.9 
		374.9,330.9 374.9,335.1 370.6,335.1 370.6,343.6 	"/>
	<polygon class="st0" points="362.2,322.4 357.9,322.4 357.9,326.6 362.2,326.6 362.2,330.9 366.4,330.9 366.4,301.2 362.2,301.2 
		362.2,296.9 357.9,296.9 357.9,305.4 362.2,305.4 	"/>
	<polygon class="st0" points="400.3,360.6 400.3,356.3 396.1,356.3 396.1,335.1 391.9,335.1 391.9,360.6 	"/>
	<polygon class="st0" points="184,207.8 188.2,207.8 188.2,195.1 184,195.1 184,203.6 179.7,203.6 179.7,212.1 184,212.1 	"/>
	<rect x="400.3" y="360.6" class="st0" width="8.5" height="4.2"/>
	<polygon class="st0" points="268.8,296.9 268.8,292.7 260.3,292.7 260.3,296.9 256.1,296.9 256.1,301.2 264.6,301.2 264.6,296.9 	
		"/>
	<polygon class="st0" points="213.7,220.6 213.7,224.8 217.9,224.8 217.9,229.1 222.2,229.1 222.2,233.3 226.4,233.3 226.4,224.8 
		222.2,224.8 222.2,220.6 217.9,220.6 217.9,216.3 209.4,216.3 209.4,220.6 	"/>
	<polygon class="st0" points="192.5,182.4 200.9,182.4 200.9,169.7 196.7,169.7 196.7,173.9 188.2,173.9 188.2,195.1 192.5,195.1 	
		"/>
	<polygon class="st0" points="222.2,246 222.2,250.3 230.6,250.3 230.6,241.8 226.4,241.8 226.4,246 	"/>
	<polygon class="st0" points="230.6,309.7 230.6,313.9 226.4,313.9 226.4,318.1 222.2,318.1 222.2,322.4 230.6,322.4 230.6,318.1 
		234.9,318.1 234.9,313.9 239.1,313.9 239.1,305.4 247.6,305.4 247.6,301.2 251.9,301.2 251.9,296.9 243.4,296.9 243.4,301.2 
		234.9,301.2 234.9,309.7 	"/>
	<polygon class="st0" points="213.7,292.7 213.7,296.9 217.9,296.9 217.9,305.4 213.7,305.4 213.7,309.7 217.9,309.7 217.9,318.1 
		222.2,318.1 222.2,305.4 230.6,305.4 230.6,301.2 234.9,301.2 234.9,292.7 222.2,292.7 222.2,284.2 217.9,284.2 217.9,292.7 	"/>
</g>
</svg>
